<svg version="1.1" id="Layer_1" xmlns="http://www.w3.org/2000/svg" xmlns:xlink="http://www.w3.org/1999/xlink" x="0px" y="0px"
	 width="100%" viewBox="0 0 129 113" enable-background="new 0 0 129 113" xml:space="preserve">
<path fill="#FFFFFF" opacity="1.000000" stroke="none" 
	d="
M88.000000,114.000000 
	C58.666668,114.000000 29.833334,114.000000 1.000000,114.000000 
	C1.000000,76.333336 1.000000,38.666668 1.000000,1.000000 
	C44.000000,1.000000 87.000000,1.000000 130.000000,1.000000 
	C130.000000,38.666668 130.000000,76.333336 130.000000,114.000000 
	C116.166664,114.000000 102.333336,114.000000 88.000000,114.000000 
M100.000198,39.999241 
	C100.000198,39.999241 100.026337,39.983341 100.058380,39.351631 
	C99.649185,38.947105 99.239990,38.542583 99.009338,38.030682 
	C99.009338,38.030682 98.839127,38.154198 98.924599,37.426968 
	C94.769402,31.888487 90.536499,26.406164 86.481560,20.795229 
	C82.669350,15.520147 77.448082,15.185179 71.812599,16.379942 
	C69.067749,16.961870 66.456245,18.183271 63.708199,18.737541 
	C56.131603,20.265707 48.557755,22.318331 40.900322,22.772474 
	C34.824883,23.132795 30.923758,25.449097 27.884892,30.297409 
	C17.414570,47.002144 17.350601,80.748505 35.016079,93.654221 
	C37.497379,95.466972 38.929108,98.689018 41.362827,100.602074 
	C43.742622,102.472740 46.815559,104.728279 49.526112,104.655319 
	C55.712105,104.488823 61.862534,103.001328 68.434303,101.922722 
	C68.434303,101.922722 68.853691,101.845253 69.476295,101.984482 
	C70.011452,101.702400 70.546608,101.420319 71.444138,100.965462 
	C71.444138,100.965462 71.828232,100.848694 72.646393,101.003868 
	C82.272911,99.203392 90.988213,95.311539 98.850243,89.504898 
	C102.407593,86.877571 104.164604,83.552589 104.092468,78.863441 
	C104.024490,74.444389 105.111572,70.014908 105.581818,65.578491 
	C106.261017,59.170830 107.224892,52.703819 102.993790,46.364590 
	C102.863525,46.014229 102.733269,45.663868 102.759964,44.777557 
	C102.545921,44.491890 102.331871,44.206223 101.943901,43.568554 
	C101.943901,43.568554 101.809013,43.199818 101.863289,42.656914 
	C101.618660,42.409031 101.374039,42.161152 100.925377,41.591839 
	C100.925377,41.591839 100.772736,41.243057 100.810745,40.686768 
	C100.547668,40.449978 100.284592,40.213188 100.000198,39.999241 
z"/>
<path fill="#0A62A3" opacity="1.000000" stroke="none" 
	d="
M101.809013,43.199818 
	C101.809013,43.199818 101.943901,43.568554 101.987488,44.010086 
	C102.221718,44.738914 102.412361,45.026211 102.603012,45.313507 
	C102.733269,45.663868 102.863525,46.014229 103.001709,47.075035 
	C101.392662,56.548332 99.951698,65.348457 98.106476,74.062981 
	C96.445114,81.909248 91.893555,87.859863 85.085648,92.139610 
	C80.610199,94.953056 76.243584,97.939636 71.828232,100.848694 
	C71.828232,100.848694 71.444138,100.965462 70.953705,100.996521 
	C69.926743,101.300148 69.390221,101.572701 68.853691,101.845253 
	C68.853691,101.845253 68.434303,101.922722 67.767197,101.936958 
	C58.370224,103.635117 51.401112,101.181969 45.615337,94.113350 
	C42.769062,90.635979 38.342758,88.498497 34.916889,85.435440 
	C31.664513,82.527504 28.784491,79.203110 26.136225,76.040947 
	C28.189323,75.345146 29.911919,74.795265 31.493097,73.973343 
	C37.763382,70.713936 43.989449,67.369461 50.217987,64.430367 
	C51.494297,65.841934 52.742626,67.708282 54.081917,67.776024 
	C60.364861,68.093773 66.679039,68.062416 72.966599,67.793861 
	C74.223228,67.740181 75.412407,66.107674 76.632690,65.203171 
	C75.390129,64.437881 74.177765,63.074039 72.899841,63.009552 
	C66.948212,62.709232 60.978455,62.768196 55.021530,62.351524 
	C56.364605,60.666973 57.487408,58.949764 59.074059,58.056026 
	C67.135078,53.515347 75.411232,49.352188 83.417702,44.720844 
	C87.800034,42.185879 91.797791,38.986076 96.231377,36.256851 
	C97.275566,37.003155 98.057343,37.578674 98.839127,38.154198 
	C98.839127,38.154198 99.009338,38.030682 98.922989,38.386940 
	C99.233200,39.156578 99.629768,39.569962 100.026337,39.983345 
	C100.026337,39.983341 100.000198,39.999241 100.013702,40.258659 
	C100.275719,40.759735 100.524231,41.001396 100.772736,41.243057 
	C100.772736,41.243057 100.925377,41.591839 101.008789,42.022522 
	C101.331131,42.702080 101.570076,42.950947 101.809013,43.199818 
z"/>
<path fill="#92C9ED" opacity="1.000000" stroke="none" 
	d="
M98.881866,37.790581 
	C98.057343,37.578674 97.275566,37.003155 96.124542,35.946983 
	C94.558655,34.515377 93.362022,33.564419 91.990143,32.367519 
	C90.656303,31.342140 89.497704,30.562700 88.127739,29.515133 
	C85.952644,28.143148 83.988914,27.039288 81.824898,25.666069 
	C79.756264,24.581989 77.887924,23.767271 75.771408,22.685421 
	C72.658943,22.312540 69.622757,21.556009 66.971390,22.256348 
	C63.167755,23.261045 59.644791,25.328321 55.540382,26.896685 
	C40.569252,24.133425 33.707249,33.959721 26.700636,44.217926 
	C25.730469,46.968029 25.028336,49.488682 24.222992,52.435966 
	C24.116440,54.909161 24.113098,56.955723 24.050549,59.437279 
	C24.053402,61.916073 24.115467,63.959873 24.127026,66.367203 
	C24.281303,68.151779 24.486086,69.572830 24.680309,71.380081 
	C25.026743,73.198143 25.383739,74.629997 25.740736,76.061844 
	C28.784491,79.203110 31.664513,82.527504 34.916889,85.435440 
	C38.342758,88.498497 42.769062,90.635979 45.615337,94.113350 
	C51.401112,101.181969 58.370224,103.635117 67.563751,102.000839 
	C61.862534,103.001328 55.712105,104.488823 49.526112,104.655319 
	C46.815559,104.728279 43.742622,102.472740 41.362827,100.602074 
	C38.929108,98.689018 37.497379,95.466972 35.016079,93.654221 
	C17.350601,80.748505 17.414570,47.002144 27.884892,30.297409 
	C30.923758,25.449097 34.824883,23.132795 40.900322,22.772474 
	C48.557755,22.318331 56.131603,20.265707 63.708199,18.737541 
	C66.456245,18.183271 69.067749,16.961870 71.812599,16.379942 
	C77.448082,15.185179 82.669350,15.520147 86.481560,20.795229 
	C90.536499,26.406164 94.769402,31.888487 98.881866,37.790581 
z"/>
<path fill="#91C8EC" opacity="1.000000" stroke="none" 
	d="
M72.237312,100.926285 
	C76.243584,97.939636 80.610199,94.953056 85.085648,92.139610 
	C91.893555,87.859863 96.445114,81.909248 98.106476,74.062981 
	C99.951698,65.348457 101.392662,56.548332 103.107437,47.334702 
	C107.224892,52.703819 106.261017,59.170830 105.581818,65.578491 
	C105.111572,70.014908 104.024490,74.444389 104.092468,78.863441 
	C104.164604,83.552589 102.407593,86.877571 98.850243,89.504898 
	C90.988213,95.311539 82.272911,99.203392 72.237312,100.926285 
z"/>
<path fill="#92C9ED" opacity="1.000000" stroke="none" 
	d="
M100.042358,39.667488 
	C99.629768,39.569962 99.233200,39.156578 98.833717,38.440628 
	C99.239990,38.542583 99.649185,38.947105 100.042358,39.667488 
z"/>
<path fill="#91C8EC" opacity="1.000000" stroke="none" 
	d="
M69.164993,101.914871 
	C69.390221,101.572701 69.926743,101.300148 70.772514,101.082916 
	C70.546608,101.420319 70.011452,101.702400 69.164993,101.914871 
z"/>
<path fill="#92C9ED" opacity="1.000000" stroke="none" 
	d="
M100.791748,40.964912 
	C100.524231,41.001396 100.275719,40.759735 100.024361,40.247238 
	C100.284592,40.213188 100.547668,40.449978 100.791748,40.964912 
z"/>
<path fill="#91C8EC" opacity="1.000000" stroke="none" 
	d="
M101.836151,42.928368 
	C101.570076,42.950947 101.331131,42.702080 101.110802,42.183239 
	C101.374039,42.161152 101.618660,42.409031 101.836151,42.928368 
z"/>
<path fill="#91C8EC" opacity="1.000000" stroke="none" 
	d="
M102.681488,45.045532 
	C102.412361,45.026211 102.221718,44.738914 102.074448,44.186089 
	C102.331871,44.206223 102.545921,44.491890 102.681488,45.045532 
z"/>
<path fill="#0A6CA3" opacity="1.000000" stroke="none" 
	d="
M26.136227,76.040947 
	C25.383739,74.629997 25.026743,73.198143 25.069889,71.357521 
	C26.398329,70.594719 27.388968,70.351654 28.245722,69.870285 
	C45.328381,60.272449 62.431927,50.710651 79.441040,40.983814 
	C83.839607,38.468449 87.932228,35.418072 92.165382,32.613457 
	C93.362022,33.564419 94.558655,34.515377 95.862137,35.776207 
	C91.797791,38.986076 87.800034,42.185879 83.417702,44.720844 
	C75.411232,49.352188 67.135078,53.515347 59.074059,58.056026 
	C57.487408,58.949764 56.364605,60.666973 54.661301,62.432129 
	C52.940449,63.258743 51.586178,63.657631 50.231907,64.056519 
	C43.989449,67.369461 37.763382,70.713936 31.493097,73.973343 
	C29.911919,74.795265 28.189323,75.345146 26.136227,76.040947 
z"/>
<path fill="#33C3E6" opacity="1.000000" stroke="none" 
	d="
M50.217987,64.430367 
	C51.586178,63.657631 52.940449,63.258743 54.654953,62.779247 
	C60.978455,62.768196 66.948212,62.709232 72.899841,63.009552 
	C74.177765,63.074039 75.390129,64.437881 76.632690,65.203171 
	C75.412407,66.107674 74.223228,67.740181 72.966599,67.793861 
	C66.679039,68.062416 60.364861,68.093773 54.081917,67.776024 
	C52.742626,67.708282 51.494297,65.841934 50.217987,64.430367 
z"/>
<path fill="#0D83A0" opacity="1.000000" stroke="none" 
	d="
M82.025192,25.935427 
	C83.988914,27.039288 85.952644,28.143148 87.791046,29.685204 
	C66.502991,42.083488 45.340260,54.043583 24.177530,66.003677 
	C24.115467,63.959873 24.053402,61.916073 24.399435,59.395161 
	C38.666870,51.308949 52.588211,43.809643 66.354614,36.035957 
	C71.756767,32.985443 76.811981,29.320532 82.025192,25.935427 
z"/>
<path fill="#0B77A1" opacity="1.000000" stroke="none" 
	d="
M24.127024,66.367203 
	C45.340260,54.043583 66.502991,42.083488 88.002411,29.953327 
	C89.497704,30.562700 90.656303,31.342140 91.990143,32.367519 
	C87.932228,35.418072 83.839607,38.468449 79.441040,40.983814 
	C62.431927,50.710651 45.328381,60.272449 28.245722,69.870285 
	C27.388968,70.351654 26.398329,70.594719 25.080450,70.971313 
	C24.486086,69.572830 24.281303,68.151779 24.127024,66.367203 
z"/>
<path fill="#0D8F9F" opacity="1.000000" stroke="none" 
	d="
M81.824898,25.666069 
	C76.811981,29.320532 71.756767,32.985443 66.354614,36.035957 
	C52.588211,43.809643 38.666870,51.308949 24.458645,58.960171 
	C24.113098,56.955723 24.116440,54.909161 24.560081,52.378204 
	C32.154816,48.189747 39.446617,44.725456 46.430851,40.724293 
	C56.411774,35.006374 66.167618,28.895569 76.019585,22.952549 
	C77.887924,23.767271 79.756264,24.581989 81.824898,25.666069 
z"/>
<path fill="#109C9F" opacity="1.000000" stroke="none" 
	d="
M75.771408,22.685419 
	C66.167618,28.895569 56.411774,35.006374 46.430851,40.724293 
	C39.446617,44.725456 32.154816,48.189747 24.663292,51.951576 
	C25.028336,49.488682 25.730469,46.968029 27.079788,44.216610 
	C37.021881,38.776917 46.321644,33.576538 55.590015,28.320810 
	C55.891144,28.150053 55.871902,27.414326 56.002003,26.941963 
	C59.644791,25.328321 63.167755,23.261045 66.971390,22.256348 
	C69.622757,21.556009 72.658943,22.312540 75.771408,22.685419 
z"/>
<path fill="#11A89E" opacity="1.000000" stroke="none" 
	d="
M55.540382,26.896685 
	C55.871902,27.414326 55.891144,28.150053 55.590015,28.320810 
	C46.321644,33.576538 37.021881,38.776917 27.347822,43.987160 
	C33.707249,33.959721 40.569252,24.133425 55.540382,26.896685 
z"/>
</svg>