<svg version="1.1" id="Layer_1" xmlns="http://www.w3.org/2000/svg" xmlns:xlink="http://www.w3.org/1999/xlink" x="0px" y="0px"
	 width="100%" viewBox="0 0 133 133" enable-background="new 0 0 133 133" xml:space="preserve">
<path fill="#FEFEFE" opacity="1.000000" stroke="none" 
	d="
M83.000000,134.000000 
	C55.358887,134.000000 28.217773,134.000000 1.038330,134.000000 
	C1.038330,89.733948 1.038330,45.467857 1.038330,1.100882 
	C45.224174,1.100882 89.448662,1.100882 133.836578,1.100882 
	C133.836578,45.332844 133.836578,89.666374 133.836578,134.000000 
	C117.134956,134.000000 100.317482,134.000000 83.000000,134.000000 
M43.738651,117.881943 
	C54.177052,122.500916 64.909637,124.079506 76.309464,122.140297 
	C106.387627,117.023712 126.679337,86.405998 119.759674,56.166519 
	C112.835930,25.909119 82.009315,7.337310 52.505333,15.648443 
	C31.457346,21.577559 15.110855,40.167999 13.020864,60.553104 
	C10.445480,85.672592 21.187929,106.042641 43.738651,117.881943 
z"/>
<path fill="#020202" opacity="1.000000" stroke="none" 
	d="
M43.404289,117.707344 
	C21.187929,106.042641 10.445480,85.672592 13.020864,60.553104 
	C15.110855,40.167999 31.457346,21.577559 52.505333,15.648443 
	C82.009315,7.337310 112.835930,25.909119 119.759674,56.166519 
	C126.679337,86.405998 106.387627,117.023712 76.309464,122.140297 
	C64.909637,124.079506 54.177052,122.500916 43.404289,117.707344 
M86.193436,52.089844 
	C77.782913,51.604473 71.679245,55.600372 67.063126,62.321571 
	C57.612827,50.926353 45.999531,48.824924 36.650055,56.589634 
	C28.147896,63.650650 27.013409,76.224236 34.147354,84.676262 
	C37.766754,88.964378 42.479149,91.252365 48.017815,91.602470 
	C56.346840,92.128960 62.373867,87.917755 67.023056,81.330093 
	C74.438644,90.862839 82.472473,93.735748 91.541550,90.401733 
	C100.515617,87.102654 104.704994,79.752640 104.009178,68.528046 
	C103.525925,60.732449 97.111107,54.543388 86.193436,52.089844 
z"/>
<path fill="#F7F7F7" opacity="1.000000" stroke="none" 
	d="
M86.615814,52.122086 
	C97.111107,54.543388 103.525925,60.732449 104.009178,68.528046 
	C104.704994,79.752640 100.515617,87.102654 91.541550,90.401733 
	C82.472473,93.735748 74.438644,90.862839 67.023056,81.330093 
	C62.373867,87.917755 56.346840,92.128960 48.017815,91.602470 
	C42.479149,91.252365 37.766754,88.964378 34.147354,84.676262 
	C27.013409,76.224236 28.147896,63.650650 36.650055,56.589634 
	C45.999531,48.824924 57.612827,50.926353 67.063126,62.321571 
	C71.679245,55.600372 77.782913,51.604473 86.615814,52.122086 
M51.029278,82.886040 
	C56.626854,81.795914 60.101978,77.760231 60.763847,72.818344 
	C61.150249,69.933212 58.557648,66.093590 56.321430,63.547535 
	C53.241302,60.040642 47.370312,59.939556 43.444202,62.358299 
	C39.353905,64.878189 37.247910,69.896881 38.401577,74.375107 
	C39.818287,79.874390 43.597061,82.618805 51.029278,82.886040 
M92.945213,79.397659 
	C95.735863,75.899261 96.681656,72.075806 95.016930,67.778961 
	C93.087509,62.798943 88.023666,60.038540 82.547859,60.996193 
	C78.129105,61.768986 71.821663,67.827820 72.891563,71.639908 
	C73.924072,75.318764 76.556877,79.196938 79.608826,81.501373 
	C83.700989,84.591232 88.464417,83.248459 92.945213,79.397659 
z"/>
<path fill="#040404" opacity="1.000000" stroke="none" 
	d="
M50.628571,82.925110 
	C43.597061,82.618805 39.818287,79.874390 38.401577,74.375107 
	C37.247910,69.896881 39.353905,64.878189 43.444202,62.358299 
	C47.370312,59.939556 53.241302,60.040642 56.321430,63.547535 
	C58.557648,66.093590 61.150249,69.933212 60.763847,72.818344 
	C60.101978,77.760231 56.626854,81.795914 50.628571,82.925110 
z"/>
<path fill="#050505" opacity="1.000000" stroke="none" 
	d="
M92.679871,79.670395 
	C88.464417,83.248459 83.700989,84.591232 79.608826,81.501373 
	C76.556877,79.196938 73.924072,75.318764 72.891563,71.639908 
	C71.821663,67.827820 78.129105,61.768986 82.547859,60.996193 
	C88.023666,60.038540 93.087509,62.798943 95.016930,67.778961 
	C96.681656,72.075806 95.735863,75.899261 92.679871,79.670395 
z"/>
</svg>